<svg width="130" height="70" viewBox="340 80 190 380" version="1.1" xmlns="http://www.w3.org/2000/svg" xmlns:xlink="http://www.w3.org/1999/xlink">
<style type="text/css">
	.st0{fill:#ff8cb9;}
	.st1{fill:#ff8cb9;}
	.st2{fill:#ff8cb9;}
	.st3{fill:none;}
</style>
<path class="st0" d="M95.7,200.8c0.4-12.2,11.5-23,23.8-22.8c17.8,0,35.5,0,53.3,0c8.9,12.6,17.9,25.1,26.7,37.7
	c-10.6,15-21.3,30-31.9,45.1c-4.3,6.3-4.3,14.6,0,20.9c10.6,15.1,21.3,30.1,32,45.1c-8.8,12.6-17.8,25.1-26.7,37.7h-54.2
	c-12.3-0.3-23.1-11.5-22.9-23.8C95.8,294.1,95.8,247.4,95.7,200.8z"/>
<path class="st0" d="M191.4,267.2c6.2-8.8,12.4-17.6,18.7-26.3c6.3,8.9,12.7,17.8,19,26.7c1.7,2.4,1.5,5.6-0.4,7.9
	c-6.2,8.7-12.4,17.5-18.6,26.1c-6.4-9-12.8-18-19.2-27C189.4,272.4,189.6,269.3,191.4,267.2z"/>
<path class="st1" d="M192.5,178c22.6,0,45.2,0,67.9,0c11.5,0.5,21.1,11.4,20.9,22.8c0,46.9,0,93.9,0,140.8
	c0.2,11.5-9.3,22.3-20.9,22.8c-22.6,0-45.2,0-67.8,0c19.4-27.3,38.8-54.5,58.1-81.9c3.2-4.3,4.5-9.7,3.4-15c-0.6-4-3.1-7.3-5.4-10.5
	C230,230.8,211.2,204.4,192.5,178z"/>
<path class="st2" d="M329,217.7c17-0.3,34-0.1,51.1-0.1c9.3,0.3,19.3,0,27.7,4.8c9.3,5,15.9,15.4,15.2,26.1
	c-0.2,10-6.8,19.1-15.5,23.6c6.3,2.6,12.7,6,16.6,11.9c9,13,4.9,32-6.8,41.9c-6.5,5.6-15.2,7.7-23.5,7.9c-21,0.8-42.1,0.4-63.1,0.5
	c-1.7,0.4-3.4-0.7-3.7-2.4c-0.1-0.4-0.1-0.8,0-1.2c0-36.3,0-72.5,0-108.8C326.6,220.2,327,217.9,329,217.7z M352.1,237.8v25.8
	c9.6,0,19.3,0,28.9-0.1c4.4-0.1,9-0.5,12.6-3.2c6.5-4.6,6.2-16.1-0.8-20.1c-3.9-2.2-8.5-2.1-12.9-2.2
	C370.7,237.8,361.4,237.8,352.1,237.8L352.1,237.8z M352.1,313.8c10.6,0,21.2,0.1,31.8-0.1c4.4-0.2,9.1-0.3,12.9-2.8
	c8.1-4.9,7.9-18.5,0-23.5c-3.8-2.6-8.6-2.9-13.1-3.2c-10.5-0.6-21-0.3-31.6-0.4C352.1,293.8,352.1,303.8,352.1,313.8L352.1,313.8z"
	/>
<path class="st2" d="M563,220.9c-0.2-1.6,0.9-3.2,2.5-3.4c0.3,0,0.7,0,1,0c28.7,0,57.3,0,85.9,0c1.5-0.2,3,0.8,3.2,2.3
	c0,0.1,0,0.1,0,0.2c0.2,5.1,0.2,10.3,0,15.4c-0.1,1.6-1.5,2.7-3.1,2.5c-0.1,0-0.1,0-0.2,0c-21.4,0.1-42.8,0-64.2,0
	c0,8.2,0,16.4,0,24.7h56.8c1.8-0.3,4,0.9,3.8,3c0.1,4.9,0.1,9.8,0,14.6c0.2,2.1-2,3.1-3.8,2.8h-56.8v30.6c21.4,0.1,42.8,0,64.1,0
	c1.6-0.2,3,0.8,3.3,2.4c0,0.2,0,0.4,0,0.6c0.1,4.9,0.1,9.8,0,14.7c0,1.5-1.3,2.8-2.8,2.7c-0.1,0-0.3,0-0.4,0c-28.7,0-57.4,0-86.1,0
	c-1.6,0.3-3.2-0.8-3.4-2.5c-0.1-0.3-0.1-0.7,0-1C563,294.1,563,257.6,563,220.9z"/>
<path class="st2" d="M443.9,221.9c-0.1-1.4,0-3.7,2-3.6c6.7-0.2,13.5-0.1,20.2,0c1.5-0.2,2.5,1.4,2.3,2.7c0,23.4,0,46.9,0,70.3
	c16.6-23.7,33.2-47.4,49.8-71.2c0.7-1.3,2-2,3.5-1.9c9.1,0,18.2-0.1,27.2,0.1c-12.2,18.4-25.1,36.4-37.5,54.7
	c12.2,18.8,24.6,37.5,36.8,56.2c1.5,1.4,0.5,4.4-1.7,4.1c-8.1,0.1-16.1,0-24.2,0c-8.3-13.5-16.7-26.9-25-40.4
	c-9.8,13.5-19.3,27.2-29.3,40.6c-7.4-0.1-14.7,0.2-22.1-0.1c-1.8,0-2-2.2-1.9-3.6C443.9,293.8,443.9,257.8,443.9,221.9z"/>
<path class="st2" d="M668.6,221.3c-1.2-1-0.6-3.4,1.1-3.1c8.3-0.1,16.5-0.1,24.8,0c1.5-0.1,2.2,1.5,3,2.5
	c7.3,11.3,14.7,22.6,22,33.9c7.4-11.6,14.8-23.2,22.2-34.8c0.9-1.9,3-1.6,4.8-1.7c7.4,0.1,14.8-0.1,22.1,0.1
	c1.7-0.2,2.3,2.2,1.1,3.2c-11.7,17.7-23.5,35.3-35.3,53c12.9,18.8,26,37.5,38.9,56.2c1.2,1,0.7,3.4-1.1,3.2
	c-7.6,0.1-15.3,0-22.9,0.1c-1.8-0.1-4.1,0.3-5.1-1.6c-8.4-12.5-16.8-25.1-25.2-37.6c-8.3,12.3-16.5,24.6-24.8,37
	c-0.8,1.2-1.8,2.5-3.5,2.2c-8.2,0-16.5,0.1-24.7,0c-2,0.3-2.5-2.2-1.2-3.3c12.9-19,26-38,38.9-57
	C692.1,256.1,680.3,238.7,668.6,221.3z"/>
<rect x="72" y="153" class="st3" width="725" height="237"/>
</svg>
