<svg width="130" height="70" viewBox="340 80 190 380" version="1.1" xmlns="http://www.w3.org/2000/svg" xmlns:xlink="http://www.w3.org/1999/xlink">
<style type="text/css">
	.st0{fill:#ff8cb9;}
	.st1{fill:#ff8cb9;}
	.st2{fill:none;}
</style>
<path class="st0" d="M111.9,230.5c13.3-11.9,30.7-18.3,48.4-19.7c17.7,0.4,35.8,5.9,49.3,17.8c-5.9,5.1-10.9,11.3-17.3,15.9
	c-17.9-15.2-47.2-13.7-63.9,2.5C122.8,241.6,117.2,236.2,111.9,230.5z"/>
<path class="st0" d="M93.8,312.3c-9.1-22.2-6.7-49.4,7.8-68.7c12.5,12.5,25.1,25,37.8,37.2c9.3-7.7,17.1-17.7,26.7-25
	c9,8.2,17.3,17,26.3,25.2c5.8-5.9,11.8-11.6,17.9-17.2c-2.6-3.3-5.8-6.1-8.6-9.1c11.3,0.1,22.6,0,33.9,0c0,11.2,0,22.5,0,33.7
	c-2.8-2.7-5.3-5.8-8.4-8.2c-1.8-0.2-2.7,1.9-4,2.8c-10.4,10.1-20.5,20.8-31.3,30.5c-8.6-8.5-17.3-17-26.1-25.4
	c-8.7,8.4-17.5,16.9-25.8,25.6c-10-8.2-18.3-18.5-28.3-26.7c0.5,14.9,7.7,28.8,19.7,37.7c17.5,13.9,44.2,13.5,61.8-0.1
	c5.6,5,10.5,10.8,16.2,15.8c-1.9,3.1-5.1,4.7-8,6.6c-8.2,4.9-17.2,8.6-26.7,9.9c-7.6,0.4-15.2,0.1-22.8,0.4
	C126.4,354,103.3,336.2,93.8,312.3z"/>
<path class="st1" d="M287.6,248.8c21.2-26.6,66.6-28.5,89.7-3.4c-4.8,4.4-9.5,9-14.4,13.5c-15-13.8-40.7-14.4-55.7-0.4
	c-16.4,16.1-15.4,47.3,3.4,61.1c16,11.1,39.4,8.5,53.4-4.7c4.9,4.8,9.5,9.9,14.8,14.3c-7.5,8.5-18.5,13.5-29.4,16.1
	c-16.4,2.8-34.3,1.6-48.8-7.2c-10.4-6.4-18.2-16.2-22.1-27.8C271.5,290,274,265.8,287.6,248.8z"/>
<path class="st1" d="M487.4,230.3c7.5-3.3,17.2,2.7,16.3,11.2c0.6,9.9-12.5,14.6-19.5,8.7C477.7,245,479.3,233,487.4,230.3z"/>
<path class="st1" d="M594.4,230.1c8-0.4,16.1-0.1,24.1-0.2c9,26.6,17.6,53.4,26.3,80.1c0.3,0.4,0.9,1.1,1.2,1.5
	c8.3-25.8,17.3-51.3,25.7-77c0.6-1.5,0.8-3.4,2.1-4.4c4.4-0.3,8.9,0,13.3-0.2c9.9,27.1,19,54.6,28.8,81.8c1.4-2.9,2.4-5.8,3.2-8.9
	c7.7-24.3,15.4-48.5,23.1-72.8c8,0,16.1-0.2,24.2,0.1C752.6,268,739,306,725.2,344c-6.1,0-12.2,0-18.3,0.1
	c-7.7-19.2-15.5-38.5-21.6-58.3c-1.8-4.3-2.3-9.2-5-13.1c-7.3,24.2-16.2,47.8-25.5,71.2c-6.2,0.1-12.5,0.2-18.7-0.1
	C622.5,305.9,608.5,268,594.4,230.1z"/>
<path class="st1" d="M413.6,263.9c13.6-3.5,29.3-1.5,40.3,7.9c17.1,14.4,19,42.7,4.9,59.7c-15.3,18.5-47.1,19.2-63.5,1.8
	c-13.5-14.7-14.6-39.2-2.8-55.2C397.7,271.2,405.2,266.1,413.6,263.9z M419.3,281c-15.6,4.8-19.3,26.3-10.4,38.6
	c7.4,10.3,24.1,10.9,32.6,1.8c9.4-10.3,8.2-28.6-3-37.1C433.2,280,425.8,279.3,419.3,281L419.3,281z"/>
<path class="st1" d="M482,263.4c6.5,0,13,0.1,19.5-0.1c0.5,26.9,0.2,53.9,0.1,80.9c-6.6-0.2-13.2,0-19.8-0.2
	C482.1,317,482,290.2,482,263.4z"/>
<path class="st1" d="M519.3,263.7c5.8-0.4,11.7,0,17.5-0.3c0.7,3.5,1.1,7.1,1.2,10.7c3.3-2,6-4.7,9.3-6.6
	c12.2-7.6,29.6-6.5,40.2,3.5c8.6,8,11.8,20.3,11.6,31.8c-0.1,13.8,0.3,27.6-0.2,41.4c-6.5-0.3-13-0.2-19.5-0.1c0-13.2,0-26.5,0-39.8
	c-0.1-6.4-1.1-13.4-5.6-18.3c-7.4-8-21.5-7.4-28.6,0.7c-4,4.4-6.1,10.2-6,16.1c0.1,13.7-0.1,27.4,0.1,41.1c-6.6,0.2-13.2,0-19.8,0.2
	C519.1,317.3,519.6,290.5,519.3,263.7z"/>
<rect x="68" y="187" class="st2" width="719" height="194"/>
</svg>
