<svg width="130" height="70" viewBox="340 80 190 380" version="1.1" xmlns="http://www.w3.org/2000/svg" xmlns:xlink="http://www.w3.org/1999/xlink">
<style type="text/css">
	.st0{fill:#ff8cb9;}
	.st1{fill:#ff8cb9;}
	.st2{opacity:0.39;fill:#ff8cb9;enable-background:new    ;}
	.st3{fill:url(#Path-7_00000033339037638086749980000000444821472538636434_);}
	.st4{opacity:0.61;fill:#ff8cb9;enable-background:new    ;}
	.st5{fill:none;}
</style>
<polygon id="Path" class="st0" points="750.8,226.8 710.4,226.8 710.4,220 799.5,220 799.5,226.8 759.1,226.8 759.1,323.9
	750.9,323.9 "/>
<polygon id="Path-2-2" class="st0" points="681,220 687.8,220 687.8,323.9 681,323.9 "/>
<path id="Shape" class="st0" d="M652.3,279.1c4.1,4.5,6.2,10.2,6.2,17.4c0,8.8-3.4,15.6-10.2,20.3c-6.8,4.8-16.8,7.1-30.2,7.1h-48.8
	V220H615c11.9,0,21.2,2.3,27.8,6.9s9.9,11.2,9.9,19.7c0.2,5.4-1.6,10.7-4.9,15c-3.5,4.2-8.1,7.2-13.4,8.8
	C642.2,271.7,648.2,274.7,652.3,279.1z M577.3,226.5v41.4h37.4c9.6,0,16.9-1.8,22.1-5.3c5.2-3.5,7.8-8.7,7.7-15.5
	c0-6.7-2.6-11.9-7.7-15.4c-5.2-3.5-12.5-5.3-22.1-5.3H577.3z M642.3,312.1c5.5-3.5,8.2-8.9,8.2-16.2s-2.7-12.7-8.2-16.2
	c-5.5-3.5-13.5-5.2-24.1-5.2h-40.9v43h40.8C628.7,317.4,636.7,315.7,642.3,312.1L642.3,312.1z"/>
<path id="Path-3" class="st0" d="M483,320c-6.5-2-12.5-5.4-17.6-10l3.8-5.5c4.6,4.2,10.1,7.4,16,9.3c6.8,2.4,13.9,3.6,21.1,3.6
	c10.7,0,18.8-1.9,24.3-5.6c5.1-3,8.2-8.5,8.2-14.4c0.2-4.1-1.4-8.1-4.3-11c-3.1-2.8-6.8-5-10.8-6.3c-5.7-1.8-11.5-3.4-17.4-4.5
	c-6.7-1.5-13.3-3.3-19.8-5.5c-4.8-1.7-9.2-4.4-12.7-8.1c-3.5-3.6-5.3-8.6-5.3-14.7c0-4.9,1.5-9.7,4.3-13.7c3.4-4.5,8-7.9,13.3-9.9
	c7.1-2.7,14.7-3.9,22.3-3.7c6.2,0,12.4,0.8,18.3,2.5c5.5,1.4,10.8,3.7,15.6,6.7l-3.1,6c-4.6-2.9-9.6-5-14.9-6.4
	c-5.2-1.4-10.6-2.2-16-2.2c-10.4,0-18.3,1.9-23.6,5.7c-5,3.2-8,8.8-8,14.8c-0.2,4.1,1.4,8.1,4.4,10.9c3.1,2.8,6.7,5,10.7,6.3
	c5.8,1.9,11.6,3.4,17.6,4.7c6.7,1.4,13.3,3.2,19.8,5.4c4.8,1.7,9.1,4.4,12.6,8c3.5,3.5,5.3,8.4,5.3,14.4c0,4.9-1.5,9.7-4.4,13.6
	c-3.5,4.5-8.2,7.9-13.6,9.8c-7.2,2.6-14.8,3.9-22.5,3.6C498.6,323.9,490.6,322.6,483,320z"/>
<polygon id="Path-4" class="st0" points="435.7,220 435.7,323.9 429.2,323.9 354.6,233.6 354.6,323.9 346.6,323.9 346.6,220
	353.4,220 427.8,310.2 427.8,220 "/>
<g id="O">
	<path id="Path-5" class="st1" d="M272.4,323.9c28.7,0,52-23.3,52-52s-23.3-52-52-52s-52,23.3-52,52S243.7,323.9,272.4,323.9z"/>
	<path id="Path-6" class="st2" d="M272.4,323.9c28.7,0,52-23.3,52-52s-23.3-52-52-52s-52,23.3-52,52S243.7,323.9,272.4,323.9z"/>

		<linearGradient id="Path-7_00000034782811387939757320000015926587014093020289_" gradientUnits="userSpaceOnUse" x1="168.9571" y1="-3.6875" x2="168.9571" y2="-15.3275" gradientTransform="matrix(14 0 0 14 -2093 419.9745)">
		<stop  offset="0" style="stop-color:#ff8cb9"/>
		<stop  offset="0.18" style="stop-color:#ff8cb9"/>
		<stop  offset="0.57" style="stop-color:#171923"/>
		<stop  offset="1" style="stop-color:#FBDBB5"/>
	</linearGradient>
	<path id="Path-7" style="fill:url(#Path-7_00000034782811387939757320000015926587014093020289_);" d="M272.4,323.9
		c28.7,0,52-23.3,52-52s-23.3-52-52-52s-52,23.3-52,52S243.7,323.9,272.4,323.9z"/>
	<rect id="Rectangle" x="269.5" y="252.5" class="st4" width="7.4" height="36.4"/>
	<path id="Shape-2" class="st4" d="M235.3,287.9c8.5,20.7,32.2,30.6,52.9,22.1c20.7-8.5,30.6-32.2,22.1-52.9
		c-8.5-20.7-32.2-30.6-52.9-22.1c-5,2-9.5,5-13.3,8.9C232.5,255.4,229,272.8,235.3,287.9z M239.6,272.4
		c-0.2-18.4,14.6-33.5,33.1-33.7c18.4-0.2,33.5,14.6,33.7,33.1c0.2,18.4-14.6,33.5-33.1,33.7c-0.1,0-0.2,0-0.3,0
		C254.6,305.6,239.7,290.8,239.6,272.4C239.6,272.4,239.6,272.4,239.6,272.4L239.6,272.4z"/>
</g>
<path id="Path-10" class="st0" d="M142.3,317.2c-7.9-4.4-14.4-10.8-18.9-18.6c-9.2-16.6-9.2-36.7,0-53.3c4.5-7.8,11-14.2,18.9-18.6
	c8.3-4.6,17.6-6.9,27-6.7c6.9-0.1,13.8,1.1,20.3,3.6c6,2.3,11.5,5.9,15.9,10.6l-4.7,4.8c-8.2-8.1-18.6-12.1-31.3-12.1
	c-8.1-0.1-16.2,1.9-23.3,5.8c-6.9,3.8-12.5,9.4-16.4,16.2c-7.9,14.3-7.9,31.8,0,46.1c3.9,6.8,9.6,12.4,16.4,16.2
	c7.1,3.9,15.1,6,23.3,5.9c12.6,0,23-4.1,31.3-12.3l4.7,4.8c-4.4,4.7-9.9,8.4-15.9,10.7c-6.5,2.5-13.4,3.7-20.3,3.7
	C159.9,324,150.6,321.7,142.3,317.2z"/>
<rect x="97" y="191.9" class="st5" width="722" height="152"/>
</svg>
