<?xml version="1.0" encoding="utf-8"?>
<!-- Generator: Adobe Illustrator 25.0.1, SVG Export Plug-In . SVG Version: 6.00 Build 0)  -->
<svg width="130" height="70" viewBox="340 80 190 380" version="1.1" xmlns="http://www.w3.org/2000/svg" xmlns:xlink="http://www.w3.org/1999/xlink">
<style type="text/css">
	.st0{fill:#ff8cb9;}
	.st1{fill:none;}
</style>
<g id="页面-1">
	<g id="lbank-logo">
		<g id="_Group_">
			<path id="_Compound_Path_" class="st0" d="M146.6,219.5c-37.4,0-67.8,30.3-67.8,67.8s30.3,67.8,67.8,67.8s67.8-30.3,67.8-67.7
				c0,0,0,0,0,0C213.7,249.7,183.6,219.5,146.6,219.5z M152.8,298.3c2,1.7,3.1,4.2,3.1,6.8c-0.1,5.1-4.2,9.1-9.2,9.2
				c-2.6-0.1-5-1.2-6.8-3.1c-6.7-5.8-16.7-5.8-23.4,0l-0.6,0.6c-1.8,1.2-3.7,2.5-6.2,2.5c-2.3,0.1-4.6-0.8-6.2-2.5l-1.2-1.2V310
				l-0.6-0.6c0-0.6-0.6-1.2-0.6-1.9s-0.6-1.9-0.6-2.5l0,0c0-1.2,0-1.8,0.6-2.5c0-0.6,0.6-1.2,0.6-1.9c0-0.3,0.3-0.6,0.6-0.6
				c0,0,0,0,0,0v-0.6c1.2,0,1.2,0,1.2-0.6l0.6-0.6l0,0c2.7-3.1,4.2-7,4.3-11.1c0.2-4.1-1.4-8.2-4.3-11.1c-1.6-2.2-2.4-4.7-2.5-7.4
				c0.1-5.1,4.2-9.1,9.2-9.2c4.9,0,8.6,4.3,8.6,9.2c-0.1,2.6-1.2,5-3.1,6.8c-5.8,6.7-5.8,16.7,0,23.4l0.6,0.6l0,0
				c3.1,2.7,7,4.2,11.1,4.3c4.1,0.2,8.2-1.4,11.1-4.3c0-0.6,0.6-0.6,1.2-1.2l0,0c2.7-3.1,4.2-7,4.3-11.1c0.2-4.1-1.4-8.2-4.3-11.1
				c-2-1.9-3.1-4.6-3.1-7.4c0-5.1,4.1-9.2,9.2-9.2c5.1,0,9.2,4.1,9.2,9.2c-0.1,2.6-1.2,5-3.1,6.8c-2.8,3.3-4.3,7.4-4.3,11.7
				C148.3,291.4,149.9,295.4,152.8,298.3z M164.5,295.9c-5.1,0-9.2-4.1-9.2-9.2c0-5.1,4.1-9.2,9.2-9.2s9.2,4.1,9.2,9.2l0,0
				c0.1,5-3.9,9.1-8.9,9.2C164.7,295.9,164.6,295.9,164.5,295.9z M188.5,298.3L188.5,298.3c0.6,1.2,1.2,1.2,1.2,1.2v0.6l0.6,0.6
				c0,0.6,0.6,1.2,0.6,1.9s0.6,1.9,0.6,2.5l0,0c0,1.2,0,1.9-0.6,2.5c0,0.6-0.6,1.2-0.6,1.9c0,0.3-0.3,0.6-0.6,0.6c0,0,0,0,0,0v0.6
				l-1.2,1.2c-1.9,1.2-3.7,2.5-6.2,2.5c-2.3,0.1-4.6-0.8-6.2-2.5l-1.2-1.2V310l-0.6-0.6c0-0.6-0.6-1.2-0.6-1.9s-0.6-1.9-0.6-2.5l0,0
				c0-1.2,0-1.8,0.6-2.5c0-0.6,0.6-1.2,0.6-1.9c0-0.3,0.3-0.6,0.6-0.6c0,0,0,0,0,0v-0.6l0.6-0.6l0.6-0.6c2.7-3.1,4.2-7,4.3-11.1
				c0.2-4.1-1.4-8.2-4.3-11.1c-1.9-1.8-3-4.2-3.1-6.8c0-5.1,4.1-9.2,9.2-9.2c5.1,0,9.2,4.1,9.2,9.2c-0.1,2.6-1.2,5-3.1,6.8
				c-2.8,3.3-4.3,7.4-4.3,11.7C184.2,291.5,186,295.2,188.5,298.3L188.5,298.3z"/>
			<polygon id="_Path_" class="st0" points="272.9,337.8 272.9,236.1 298.8,236.1 298.8,317.4 344.3,317.4 344.3,337.8 			"/>
			<polygon id="_Path_2" class="st0" points="795.9,337.8 745.4,287.2 795.9,236.7 758.9,236.7 726.9,268.8 726.9,236.1 701,236.1
				701,337.8 726.9,337.8 726.9,305.7 758.9,337.8 			"/>
			<polygon id="_Path_3" class="st0" points="500.8,318 494.6,337.8 467.5,337.8 502.6,236.1 537.1,236.1 572.3,337.8 545.2,337.8
				539,318 532.8,298.9 519.9,256.4 506.3,298.9 			"/>
			<polygon id="_Path_4" class="st0" points="614.1,271.2 614.1,337.8 589.5,337.8 589.5,236.1 621.5,236.1 659.7,305.7
				659.7,236.1 684.4,236.1 684.4,337.8 652.3,337.8 			"/>
			<path id="_Compound_Path_2" class="st0" d="M448.4,298.3c-1.3-2.9-2.9-5.6-4.9-8c-2.1-2.1-4.6-3.8-7.4-4.9
				c-2.6-1.1-5.3-1.9-8-2.5c2.5-0.5,5-1.4,7.4-2.5c2.3-1.1,4.4-2.5,6.2-4.3c1.9-1.8,3.2-4.2,3.7-6.8c1.2-2.5,1.2-5.5,1.2-8.6
				c-0.1-3.1-0.5-6.2-1.2-9.2c-1-3.1-3-5.9-5.5-8c-2.7-2.7-6.1-4.6-9.9-5.5c-5-1.3-10.2-2-15.4-1.9H361v101.6h57.3
				c10.5,0,17.9-2.5,23.4-7.4s8-11.7,8-20.3C450.2,306.1,449.8,302.1,448.4,298.3z M387.4,252.7h27.1c2.1,0.1,4.2,0.5,6.2,1.2
				c1.6,0.4,3.1,1.3,4.3,2.5c1,1.1,1.9,2.3,2.5,3.7c0.6,1.4,0.8,2.8,0.6,4.3c0,3-1.1,5.8-3.1,8c-1.9,2.5-5.5,3.1-10.5,3.1h-27.1
				L387.4,252.7z M428.1,316.2c-1.9,2.5-5.5,3.1-10.5,3.1h-30.2v-22.8h30.2c2.1,0.1,4.2,0.5,6.2,1.2c1.6,0.4,3.1,1.3,4.3,2.5
				c1,1.1,1.9,2.3,2.5,3.7c0.6,1.4,0.8,2.8,0.6,4.3C431.2,311.2,430.6,314.3,428.1,316.2z"/>
		</g>
	</g>
</g>
<rect x="51.7" y="199.5" class="st1" width="771.3" height="175.5"/>
</svg>
