<svg width="130" height="70" id="Layer_1" data-name="Layer 1" xmlns="http://www.w3.org/2000/svg" viewBox="0 0 719 206"><defs><style>.cls-1{fill:#ff8cb9;}.cls-2{fill:none;}</style></defs><title>xt_com_logo-freelogovectors.net</title><path id="形状_756" data-name="形状 756" class="cls-1" d="M384.92,404.5a8.48,8.48,0,1,1,8.48,8.69A8.6,8.6,0,0,1,384.92,404.5ZM489.4,336.84V354H463.55c-8.72,0-14.75,2-18.09,6q-4.84,5.63-4.84,17.22,0,12.91,7.91,18.86a19.7,19.7,0,0,0,7,3.21,46.39,46.39,0,0,0,10.58.92H489.4v17.22H459.84a57.58,57.58,0,0,1-18.9-2.49,29,29,0,0,1-12.27-8.59,43,43,0,0,1-10.18-29.47q0-21.54,12.12-32.12a28.46,28.46,0,0,1,11.63-6.14,70.88,70.88,0,0,1,17.6-1.79Zm52.81-1.17q21.81,0,32.14,12.91a45.48,45.48,0,0,1,9.53,29.63,39.39,39.39,0,0,1-12,30.13q-11,10.25-30,10.26Q522.17,418.6,511,407q-10.33-10.44-10.34-30.48a41.11,41.11,0,0,1,9.86-28.11Q521.54,335.81,542.21,335.67Zm.16,16.88q-19.54,0-19.54,24.84a29.91,29.91,0,0,0,3.23,15.4,17.87,17.87,0,0,0,16.48,8.94q19.2,0,19.2-24.69Q561.76,352.92,542.37,352.55Zm57.5-15.71h79.47a62.08,62.08,0,0,1,16.47,1.64,20.86,20.86,0,0,1,9.53,5.79,31.67,31.67,0,0,1,7.11,21.85v51.32H690.81V369.61a46,46,0,0,0-.49-8.12,8.12,8.12,0,0,0-2.26-4.12A13.88,13.88,0,0,0,677.89,354H666.42v63.41H644.77V354H621.51v63.41H599.87v-80.6ZM261.43,377.11,230.24,335.8H255l18.67,27.52,20.23-27.52h24.5l-32.2,41.31,32.2,42.15H294.63l-20.94-28.65-20.52,28.65H229.1ZM350,350.69h-36.5L326.2,335.8h75.56v14.89H370.28v68.58H350.05V350.69Z" transform="translate(-15.5 -272)"/><path id="形状_756_拷贝" data-name="形状 756 拷贝" class="cls-1" d="M384.92,404.5a8.48,8.48,0,1,1,8.48,8.69A8.6,8.6,0,0,1,384.92,404.5Z" transform="translate(-15.5 -272)"/><path id="形状_519" data-name="形状 519" class="cls-1" d="M116.8,453.71a78.71,78.71,0,1,1,78.12-79.3V375A78.51,78.51,0,0,1,116.8,453.71Zm0-145.74a67,67,0,1,0,66.55,67.51V375A66.87,66.87,0,0,0,116.8,308Zm2.81,56.23,15.08-18.45a4.53,4.53,0,0,0-3.42-7.4h0a4.48,4.48,0,0,0-3.42,1.61l-14,17.12L99.79,340a4.28,4.28,0,0,0-3.41-1.61H84.8a4.51,4.51,0,0,0-3.42,7.4l20.87,25.5L75.6,403.87a4.48,4.48,0,1,0,6.72,5.93l.12-.14L108,378.4Zm35-25.85a4.52,4.52,0,0,0-3.42,1.61l-25.5,31.29-11.58,14.17L99,403.87a4.48,4.48,0,1,0,6.84,5.79l14-17.09,14,17.09a4.34,4.34,0,0,0,3.42,1.61h11.55a4.5,4.5,0,0,0,3.42-7.4L131.44,378.4l26.65-32.65a4.56,4.56,0,0,0-3.51-7.4" transform="translate(-15.5 -272)"/><rect class="cls-2" width="719" height="206"/></svg>
