<svg width="130" height="80" viewBox="100 -110 500 430" version="1.1" xmlns="http://www.w3.org/2000/svg" xmlns:xlink="http://www.w3.org/1999/xlink"><defs><style>.cls-1{fill:#ff8cb9;}.cls-2{fill:#ff8cb9;}.cls-3{fill:none;}</style></defs><title>ztgloballogo-freelogovectors.net</title><path class="cls-1" d="M41.5,311.68c1.74-.62,3.63-.38,5.44-.42q76.1,0,152.2,0c4.47-.1,8,4.77,6.84,9-.52,4.55-4.66,8.5-9.32,8.3q-77.06,0-154.09,0a7.19,7.19,0,0,1-7.42-5.34c-1-4.69,1.68-10,6.35-11.56m18.12,25.7a15.26,15.26,0,0,1,3-.25c39.74,0,79.48,0,119.22,0a7.5,7.5,0,0,1,7,9.27c-.39,4.72-4.72,8.81-9.51,8.56Q119.63,355,60,355a7.54,7.54,0,0,1-7.32-5.45c-1.15-5,1.75-10.9,6.94-12.15m43,27.35a17,17,0,0,1,4.82-.35c11.46,0,22.91,0,34.36,0,2.58,0,4.49,2.2,5,4.53.91,5.51-3.78,11.16-9.4,11.08h-36.3a5.6,5.6,0,0,1-5.36-4.22,10,10,0,0,1,6.83-11M99,391.09a8.37,8.37,0,0,1,3.48-.58c12.07,0,24.15,0,36.23,0,2.66-.1,4.59,2.24,5.17,4.63.76,5.32-3.55,10.74-9,11-12.27,0-24.54,0-36.82,0a5.54,5.54,0,0,1-5.31-4.2A10,10,0,0,1,99,391.09m-1.2,25.63c12.58-.19,25.17,0,37.76-.09,2.64-.08,4.87,2.21,5.32,4.71a10,10,0,0,1-5.47,9.94c-2.22,1.28-4.85.93-7.3,1H95A5.55,5.55,0,0,1,89.7,428a9.93,9.93,0,0,1,8.07-11.25m-5.09,26.12c12.41-.17,24.84,0,37.27-.09a5.58,5.58,0,0,1,5.7,4.78,10,10,0,0,1-5.31,9.8c-2.2,1.32-4.83,1-7.28,1.05q-16.52,0-33,0a5.61,5.61,0,0,1-5.46-4,9.9,9.9,0,0,1,8.12-11.52Z" transform="translate(-17.38 -279.76)"/><path class="cls-2" d="M475.32,337.14a14.2,14.2,0,0,1,8.7.4c2.24,1,3,3.57,2.87,5.82q0,17.36,0,34.71a7.87,7.87,0,0,1-1,3.29c-4.91,10.23-5.25,22.85.06,33,1.66,2.85.72,6.29.93,9.42.32,4.06-4.45,5.81-7.79,5.57-3.31.19-7.85-1.62-7.58-5.57q0-40.68,0-81.35a5.15,5.15,0,0,1,3.8-5.3m228.5-.1c2.86-.53,6.06-.68,8.71.71,2,1.05,2.59,3.43,2.49,5.52q0,40.25,0,80.47c.35,3.17-2.87,5.25-5.67,5.48-3.8.69-9.9-.55-9.72-5.44q0-40.69,0-81.37a5.2,5.2,0,0,1,4.17-5.37m-139.1,6.25c.32-6.14,8.83-8.29,13-4.62a7,7,0,0,1,2.34,5.49c0,9.88,0,19.76,0,29.65,2.92-5.82,8-10.85,14.62-12.15,7.34-1.32,15.55.75,20.75,6.28,3.4,3.44,5.44,8,6.92,12.52a59.94,59.94,0,0,0-.14,30.5c-1.82,5.92-5.25,11.58-10.46,15.1-7.23,5-17.29,5.07-24.91.84-3-1.7-5-4.64-6.51-7.61-.06,2.59.48,5.66-1.42,7.77-2.55,2.67-6.72,2.66-10,1.77-2.91-.72-4.35-4-4.2-6.75,0-26.26,0-52.53.05-78.79m25.64,31.93c-6.32,1.62-8.93,8.51-9.83,14.32-.95,7.42-1.12,15.59,2.79,22.25,4.83,7.91,18.11,6.65,22.39-1.21,2.75-5,3-10.86,3-16.43-.19-5.41-1.1-11.31-5-15.41-3.29-3.67-8.72-4.73-13.36-3.52M393,358a38,38,0,0,1,27.69-16.71c9.11-.84,18.89-.17,26.79,4.91,4.21,2.75,8.47,5.83,11.11,10.21,1,1.72,1.67,4,.46,5.83-2.87,3.6-8.43,5.27-12.48,2.7-2.52-2-4.52-4.51-7.2-6.25C429.69,352,415,354.06,408,363.59c-5.58,7.15-7.42,16.56-6.77,25.45.44,7.28,2.81,14.69,7.84,20.12,6.39,6.89,17.26,9.68,25.94,5.8,7.6-3.41,12.18-11.68,12.08-19.88-4.82-.06-9.66.11-14.48-.08-2.14-.15-4.67-.56-5.94-2.51-2.19-3.93-1.1-10.67,4.14-11.33,6.48-.77,13.06-.16,19.58-.36,3.46.13,7.63-.59,10.39,2,2.14,2.71,2,6.39,2.15,9.66-.1,8.52-1.64,17.41-6.56,24.54-4.72,7-12.57,11.49-20.81,12.86-11.32,1.83-23.65.3-33.23-6.35-9.44-6.27-15-17.14-16.48-28.18-1.73-12.75,0-26.5,7.17-37.4m-154.55-3.2c-2.43-4-.91-11,4.5-11.3,17.79-.21,35.57.07,53.36-.14-5.9,2.38-5.33,12.59,1.13,13.83q-19.08,28.39-38,56.9c11.72,0,23.45-.05,35.17,0,3.74-.12,6.59,3.48,6.15,7.08a6.29,6.29,0,0,1-6.16,6.95c-17.2.09-34.41.06-51.61,0-3.86.32-7.45-4.17-5-7.65,13.79-21.09,27.91-42,41.82-63H244.54a7.09,7.09,0,0,1-6.12-2.74m68.93-11.27c16.9-.24,33.81,0,50.71-.12,2.82-.26,6.23.68,7.35,3.56,1,3.07,1,7.43-2,9.36a8.7,8.7,0,0,1-5.32,1.23q-8.06,0-16.11,0c0,21.83,0,43.67,0,65.49a6.09,6.09,0,0,1-5.08,6.1c-2.78.46-6,.52-8.36-1.24a6.86,6.86,0,0,1-2.43-5.7q0-32.33,0-64.65c-5.74,0-11.47,0-17.21,0a7,7,0,0,1-5.67-2.6c-2.46-3.92-1.17-10.86,4.16-11.4m211.07,18.21a29.38,29.38,0,0,1,22.38,3.73c7.45,4.64,12.38,12.68,14.07,21.2,3.41,16.75-5.58,35.45-21.43,42.3a29.88,29.88,0,0,1-25.23-.3A30.7,30.7,0,0,1,494.07,414c-5.24-11.08-4.17-24.64,2-35.15a35.61,35.61,0,0,1,22.38-17.15m7.2,12.45A37.3,37.3,0,0,1,501,397.48a43.07,43.07,0,0,1,9.66,4.85c6.4,4.18,10.26,11.16,12.48,18.29a40.19,40.19,0,0,1,9-14,39.51,39.51,0,0,1,15.82-9,33.27,33.27,0,0,1-22.41-23.54m122.53-11.58c5.68-1.67,12.19-2.12,17.53.86,4.14,2.17,6.87,6.23,8.59,10.48.09-2.87-.72-6.2,1.31-8.6,3.63-5.1,13.65-3.11,14,3.53.07,17.76,0,35.53,0,53.3.12,2.68-1.29,5.72-4,6.53-3.31.93-7.46,1-10.06-1.57-2.12-2-1.46-5.26-1.55-7.87-1.86,3.85-4.52,7.72-8.7,9.26-9.36,3.47-20.93.9-27.44-6.82-5.27-6.18-7.42-14.41-7.8-22.36s.3-16,3.65-23.29c2.67-6.2,7.84-11.56,14.45-13.45m8.26,12.66c-6.15,1.51-9.61,7.77-10.32,13.67-.83,6.93-.89,14.34,2,20.82,3.53,7.84,15.46,10,21.48,3.89,4-4.6,4.71-11.07,4.73-17-.1-6.14-.9-12.77-4.81-17.77-3.06-3.83-8.54-4.85-13.11-3.66" transform="translate(-17.38 -279.76)"/><rect class="cls-3" width="715.24" height="190.48"/></svg>
